{"title":"My.Name.Is.Khan.2010.DVDRiP.XviD.SWESUB-Zen_Bud","uid":5956058,"size":2108833412,"categoryP":"video","categoryS":"movies","magnet":"?xt=urn:btih:1ea6f470138079afcc21bc431855db44015d1adc&amp;dn=My.Name.Is.Khan.2010.DVDRiP.XviD.SWESUB-Zen_Bud&amp;tr=udp%3A%2F%2Ftracker.openbittorrent.com%3A80&amp;tr=udp%3A%2F%2Fopen.demonii.com%3A1337&amp;tr=udp%3A%2F%2Ftracker.coppersurfer.tk%3A6969&amp;tr=udp%3A%2F%2Fexodus.desync.com%3A6969","seeders":1,"leechers":0,"uploader":"Zen_Bud","files":-1,"time":1289725979,"description":"---------- My.Name.Is.Khan.2010.DVDRiP.XviD.SWESUB-Zen_Bud.avi ----------\n\nFormat                           : AVI\nFile size                        : 1.96 GiB\nDuration                         : 2h 41mn\nOverall bit rate                 : 1 741 Kbps\n\nVideo\n\nFormat                           : MPEG-4 Visual\nCodec ID/Hint                    : XviD\nDuration                         : 2h 41mn\nBit rate                         : 1 600 Kbps\nWidth                            : 720 pixels\nHeight                           : 364 pixels\nDisplay aspect ratio             : 2.35:1\nStream size                      : 1.81 GiB (92%)\nWriting library                  : XviD 1.1.2 (UTC 2006-11-01)\n\nAudio\n\nFormat                           : MPEG Audio\nCodec ID/Hint                    : MP3\nDuration                         : 2h 41mn\nBit rate                         : 128 Kbps\nChannel(s)                       : 2 channels\nSampling rate                    : 48.0 KHz\nStream size                      : 148 MiB (7%)\nWriting library                  : LAME3.98\n\nRizwan Khan, a Muslim from the Borivali section of Mumbai, suffers from Asperger's syndrome, a form of high-functioning autism that complicates socialization... \n\n\n=============== Sorry for the bad rip yesterday :( =====================","torrent":{"xt":"urn:btih:1ea6f470138079afcc21bc431855db44015d1adc","amp;dn":"My.Name.Is.Khan.2010.DVDRiP.XviD.SWESUB-Zen_Bud","amp;tr":["udp%3A%2F%2Ftracker.openbittorrent.com%3A80","udp%3A%2F%2Fopen.demonii.com%3A1337","udp%3A%2F%2Ftracker.coppersurfer.tk%3A6969","udp%3A%2F%2Fexodus.desync.com%3A6969"],"infoHash":"1ea6f470138079afcc21bc431855db44015d1adc","infoHashBuffer":{"type":"Buffer","data":[30,166,244,112,19,128,121,175,204,33,188,67,24,85,219,68,1,93,26,220]},"announce":[],"urlList":[]}}